# xmcd
#
# Track frame offsets:
#	150
#	3150
#	24335
#	40615
#	58225
#	71918
#	91038
#	108243
#	125243
#	142970
#	159003
#	173950
#	191830
#	209348
#
# Disc length: 3042 seconds
#
# Revision: 1
# Processed by: cddbd v1.5.1PL0 Copyright (c) Steve Scherf et al.
# Submitted via: CDex 1.50Beta5
#
DISCID=b80be00e
DTITLE=さまざまなアーティスト - DANCE HALL PREMIER
DYEAR=1900
DGENRE=
TTITLE0=HASE-T/introduction
TTITLE1=餓鬼レンジャー&PAPA-B/破AH!
TTITLE2=RYO the SKYWALKER/BIG GUN SALUTE
TTITLE3=JUN4SHOT/GROWING
TTITLE4=RYO-Z/MAD COP
TTITLE5=MAJIMAN/BON and RUN - MAJIMAN
TTITLE6=DOSMOCCOS/だけんなんや
TTITLE7=PAPA-B/青い眼のワシがゆっくりと死んでいく〜YA LAOULD
TTITLE8=H-MAN/そんでっ!?
TTITLE9=ATOOSHI/GO
TTITLE10=SOLDIER/TOP FIGHTER
TTITLE11=MICADELIC/FREEDOM TRAIN
TTITLE12=MINESIN-HOLD/マイク・ジャッカー
TTITLE13=ラッパ我リヤ&JUMBO MAATCH/MAJIKADEBINA
EXTD=
EXTT0=
EXTT1=
EXTT2=
EXTT3=
EXTT4=
EXTT5=
EXTT6=
EXTT7=
EXTT8=
EXTT9=
EXTT10=
EXTT11=
EXTT12=
EXTT13=
PLAYORDER=
